<?xml version="1.0" standalone="no"?>
<!DOCTYPE svg PUBLIC "-//W3C//DTD SVG 20010904//EN"
 "http://www.w3.org/TR/2001/REC-SVG-20010904/DTD/svg10.dtd">
<svg version="1.0" xmlns="http://www.w3.org/2000/svg"
 width="678.000000pt" height="678.000000pt" viewBox="0 0 678.000000 678.000000"
 preserveAspectRatio="xMidYMid meet">
<metadata>
Created by potrace 1.11, written by Peter Selinger 2001-2013
</metadata>
<g transform="translate(0.000000,678.000000) scale(0.100000,-0.100000)"
fill="#000000" stroke="none">
<path d="M3356 6773 c-10 -3 -636 -376 -1390 -829 -1012 -608 -1377 -832
-1393 -855 l-23 -32 0 -846 c0 -786 1 -848 18 -881 15 -30 96 -82 618 -395
l601 -360 -605 -364 c-550 -331 -606 -367 -619 -400 -18 -41 -12 -95 14 -128
10 -13 637 -396 1393 -850 1291 -777 1378 -827 1420 -827 41 1 152 65 1420
827 1017 611 1381 834 1398 858 l22 32 0 846 c0 786 -1 848 -18 881 -15 30
-96 82 -618 395 l-600 360 599 360 c342 206 606 371 615 385 24 35 22 112 -3
144 -28 36 -2760 1677 -2799 1681 -17 2 -39 1 -50 -2z m-86 -1010 l-1 -668
-618 -371 -618 -372 -551 332 c-303 182 -552 333 -552 336 0 4 2329 1409 2338
1410 1 0 2 -300 2 -667z m1424 -43 c636 -382 1156 -697 1156 -700 0 -3 -249
-154 -552 -336 l-551 -332 -611 368 -611 369 -3 666 c-1 403 1 665 7 663 5 -1
529 -316 1165 -698z m-747 -1182 c462 -278 549 -334 535 -343 -9 -7 -259 -157
-554 -334 l-538 -322 -554 333 c-305 183 -554 333 -553 334 8 8 1102 664 1106
664 4 0 254 -149 558 -332z m-2641 -622 c-265 -158 -487 -291 -493 -293 -10
-4 -13 117 -13 586 l0 590 493 -297 493 -297 -480 -289z m1833 -526 c0 -3
-249 -154 -553 -336 l-553 -331 -551 331 c-304 182 -552 333 -552 336 0 3 248
154 552 336 l551 331 553 -331 c304 -182 553 -333 553 -336z m2194 315 c285
-170 517 -312 517 -315 0 -3 -248 -154 -552 -336 l-551 -331 -553 331 c-304
182 -553 333 -553 336 0 3 248 154 552 336 l552 331 36 -21 c20 -12 268 -160
552 -331z m-1405 -787 c296 -177 545 -326 554 -333 14 -9 -69 -63 -538 -345
l-554 -333 -555 333 c-338 204 -550 337 -542 342 6 4 255 153 552 332 297 179
542 325 543 326 2 0 245 -145 540 -322z m2052 -348 l0 -589 -493 297 -493 297
485 292 c267 161 489 292 494 293 4 0 7 -265 7 -590z m-2710 -1554 l0 -668
-22 14 c-13 8 -539 324 -1170 704 -632 379 -1148 691 -1148 694 1 3 249 154
552 336 l551 332 618 -372 618 -371 1 -669z m2067 1057 c282 -170 512 -310
513 -313 0 -5 -2301 -1391 -2321 -1398 -5 -2 -9 263 -9 661 l0 665 613 370
612 369 40 -23 c22 -13 270 -162 552 -331z"/>
</g>
</svg>
