<?xml version="1.0" encoding="utf-8"?>
<!-- Generator: Adobe Illustrator 19.0.0, SVG Export Plug-In . SVG Version: 6.00 Build 0)  -->
<svg version="1.1" id="Capa_1" xmlns="http://www.w3.org/2000/svg" xmlns:xlink="http://www.w3.org/1999/xlink" x="0px" y="0px"
	 viewBox="0 0 555 305" style="enable-background:new 0 0 555 305;" xml:space="preserve">
<style type="text/css">
	.st0{fill:#999999;stroke:#FFFFFF;stroke-linecap:round;stroke-linejoin:round;}
</style>
<path name="Ahuchapán" id="mapa-ahuachapan" class="st0 dep-mapa" d="M85.8,95.4l1.9,0.8l4.2,2.7l0.8,0.7l0.7,1l0.5,1.9l0.6,1.1l0.8,0.8l0.9,0.7L97,106l0.7,1.5
	l-0.7,4.3l-4.5,15.7l-4,1.7l-5,1.4l-2.8,0.4l-0.6,0.4l-0.5,0.7l-0.2,1.5l-0.1,1l0.5,4.4l0.4,1.4l0.4,1.1l0.7,1.7l-0.1,0.8l-4.7,7.1
	l-0.4,1.3l-0.1,0.9l1.9,6.1l0.2,1.3l-0.3,0.9l-0.7,1.1l-1.7,2.1l-0.7,1.3l-0.4,1l-0.1,2.2l-0.2,0.6l-2.9,5.3l-0.4,1.1l-1.3,5.3
	l-1.2,0.4l-1.9,0.2l-6.9-0.4l-1.4-0.3l-0.4-0.3l-1.7-1.6l-3-3.4l-1.4-1.1l-1.2-0.4l-1.7-0.1l-1.3,0.2l-1.4,0.6l-1.2,0.9l-1.7,2.1
	l-3.7,5.8l-0.5,0.9l-15.5-7.1l-16.4-8l-4.9-15.9L2,150.3l0.6-3.8l1.2-3.7l1.8-3.4l2.7-2.8l6.3-3.4l2.8-2.3l2.1-3.3l1.5-3.4l1.9-3.3
	l3.4-3l22-15.5l4.9-4.9l2.4-1.6l10.1-3.9l3.3-0.2l4.2,1.1l5.9,4.6l3.4,1.4l3.3-1.8l0.1-1.3L85.8,95.4L85.8,95.4z"/>

<path name="Cabañas" id="mapa-cabanas" class="st0 dep-mapa" d="M371.7,141.1l-1.4,1.3l1.4,2.9l-0.3,2.8l-1.6,2.4l-2.4,1.6l0.5,3.3l-2.2,3.3l-2.1,4.1l0.1,0.1
	l-3.7,2.5l-2.2-0.6L352,164l-0.8-0.3l-0.4-0.4l-0.5-1.1l-0.3-1.3l-0.3-0.6L349,160l-1.6-0.4l-0.6-0.3l-1.5-0.9l-2.4-0.9l-0.6-0.3
	l-4.2-3.1l-0.5-0.3l-2.6-0.4l-3.1-0.2l-1.5-0.3l-7.3,0.1l-1.6-0.2l-1.1-0.3l-3.3-2.4l-0.8,0.1l-0.8,0.4l-1.1,1.6l-0.8,0.8l-0.8,0.5
	l-1.3-0.1l-1.7-0.4l-1.5,0.4l-7.1,3.2l-2.2,0.7l-1.6,0.3l-2.4-0.8l-1.3-0.3l-1.5-0.1l-0.6,0.8l-0.4,0.7l-0.3,6.8l-7.9-2.2l-2.1-1.2
	l-0.2-0.6l-1.5-2.3l-2.2-2.3l-0.9-1.3l-0.5-1.1l-0.3-1.5l-0.3-0.9l-1.2-2l-0.3-1l-0.2-1.1l-0.8-1.8l-1.1-1.3l-1.8-1.3l-1.4-1.5
	l-4.4-6.3l-1.1-2.1l-0.6-1.5l0.1-0.7l0.4-1.2l0.7-0.9l0.5-0.3l3-1.8l0.8-0.7l0.8-0.8l0.9-1.6l3.4-5.4l6.7-0.2l6,0.6l3.2-0.8l3.4-1.3
	l14-4.7l2.7-1.2l1.6-1.2l1.7-2.3l4.8-2.3l10.5-1.6l-0.1,0.4l1.4-0.6l5.8-0.9l5.8,0.4l17.3,5.5l10.1,0.8l2.2,0.9l2.1,2l-0.3,1.3
	l-0.3,0.3l-1.1-0.1l1.4,3.1l-0.2,2.8l-0.8,2.9l-0.5,3.4l0.7,2.3l2.5,6.2l0.1,3.8L371.7,141.1L371.7,141.1z"/>

<path name="Cuscatlán" id="mapa-cuscatlan" class="st0 dep-mapa" d="M272.8,118.3l-3.4,5.4l-0.9,1.6l-0.8,0.8l-0.8,0.7l-3,1.8l-0.5,0.3l-0.7,0.9l-0.4,1.2l-0.1,0.7
	l0.6,1.5l1.1,2.1l4.4,6.3l1.4,1.5l1.8,1.3l1.1,1.3l0.8,1.8l0.2,1.1l0.3,1l1.2,2l0.3,0.9l0.3,1.5l0.5,1.1l0.9,1.3l2.2,2.3l1.5,2.3
	l0.2,0.6l2.1,1.2l7.9,2.2l-4.2,11.2l-0.8,3.3l-0.6,1.1l-0.5,0.8l-4.4,4.4l-1.6,0.9l-1.3,0.4l-2.8,0.4l-1.2,0.4l-0.3,0.4l-0.5,1.1
	l-0.4,0.4l-0.9,0.4l-1.8,0.2l-4.3-1.4l-3.9-2.1l-10.1-3.7l-0.2-7.1l-0.5-1.2l-0.4-1.3l-1.1-1.4l-3.9-7.6l-0.4-1.1l0.4-5.1l-0.2-1
	l-0.4-0.7l-0.6-0.2l-0.9-0.6l-0.9-0.9l-2.9-4.3l-0.4-0.3l-1.3-0.4l-1.4-0.1l-1.6-1.3l-2.1-2.4l-6-9.6l-0.7-1.8l0.4-0.4l1.6-0.7
	l0.6-0.4l0.4-0.4l0.4-0.9l-0.2-0.6l-1.4-1.8l-4.7-7.8l-2.2-4.5l-0.4-1.8l-0.3-2.1l0.2-0.3l1.2-1.1l0.6-0.9l0.4-1.2l0.2-1.4l0.3-1.3
	l0.2-1.6l-0.2-2.3l-0.7-3.9l-0.1-1.1l0.3-0.8l1.1-2.2l1.1-2.8l0.1-2.3l4-2.1l1.5,0.1l2.8,1.5l5.9,2.1l1.2,0.6l1.7,1.5l3.9,2.8
	l0.3,0.4l1.1,1.8l5,6l0.4,0.7l0.1,0.4l-0.2,1v0.6l0.2,1.2l0.4,1.1l0.6,1.3l1.2,1.8l1.1,0.9l0.8,0.6l4.9,2.3l4.1-0.3l3.5,1.4
	L272.8,118.3L272.8,118.3z"/>

<path name="La Libertad" id="mapa-lalibertad" class="st0 dep-mapa" d="M195.7,93.7l-0.3,7.9l-1.2,5.1l-0.1,1.3l0.2,0.8l1.4,1.1l0.6,0.8l0.6,1.2l1.2,2.7l0.7,1.2l0.7,0.9
	l0.9,0.6l1.1,0.5l1.9,0.6h0.7l2.1-0.2l1.4,0.1l1.3,0.4l0.8,0.4l0.8,0.7l1.2,0.7l0.3,0.5l0.1,0.4l-0.6,1.6l-0.4,1.6l-0.2,0.2
	l-1.7-0.1l-0.6,0.2l-0.4,0.4l-0.2,0.8l-1.2,13.1l-0.3,1.3l-0.2,0.6l-0.5,0.3l-1.2,0.4l-0.9,0.7l-0.7,0.9l-0.4,1.1l-0.3,1.1l-0.4,4.2
	l-0.4,1.8l-0.8,1.8l-0.4,2.2l-0.3,3.8l-0.4,1.6l-1.6,2.9l-1,2.9l0.1,0.9l0.4,0.5l1.3,0.2l1.2,1.5l-0.2,2.4l0.2,2.2l0.2,0.6l0.7,0.9
	l0.9,0.7l0.4,0.6l0.3,0.8l0.4,1.8l0.3,1.1l0.4,0.7l0.5,0.4l3.3,1.8l1.4,1.1l1.6,2.1l0.2,0.9l-0.1,0.8l-0.7,1.4l-0.6,1.3l0.1,0.7
	l0.5,0.6l1.7,0.8l0.3,0.6l-0.1,0.6l-0.8,0.8l-0.3,1.3l-0.2,2.2l0.4,9.7l-0.1,0.8l-1.4,3.7l-0.5,2l-0.1,1.1l0.2,0.9l3.7,5.9l1.3,2.8
	l0.3,0.5l0.5,0.3l1.4,0.1l1.3-0.3l2.4-0.8l1.3-0.2l1.4,0.3l1.7,0.7l0.8,3.8l0.7,1l1.5,0.1l1.3,0.3l2.3,0.9l0.7,0.8l0.2,0.7l-0.6,1
	l-1.1,1.4l-0.7,0.9l-1.8,3.2l-0.6,1.4l-0.7,2.2l-10.9-6.8l-15.5-6.9l-16.8-4h-7.8l-5.9-1.4l-32.5,0.2l-13.9-3.4l-4.9-1l3-7l1.2-1.9
	l5.8-5.1l1-1.2l0.6-0.9l0.3-2.8l0.4-2l0.6-1.2l0.6-0.7l0.9-0.8l5-5l1.2-1.5l0.6-1.2l0.1-0.8l-0.3-5.2l0.4-2.7l0.7-2.8l0.5-1.3
	l0.5-0.9l0.4-0.4l0.9-0.6l0.6-0.1l1.6-0.2l0.9-0.4l0.9-0.7l2.7-3.3l1.2-1.2l3.4-2l1.4-1l1.7-1.5l0.6-0.9l0.3-0.9l-0.1-0.7l-0.6-1.1
	l-0.9-0.7l-0.6-0.3l-2.6-0.8l1.1-6.5l4-11l0.4-5l-0.2-4.2l0.3-6.3l0.3-1.3l0.4-0.4l0.5-0.3l0.6-0.1l1.2,0.2l0.6-0.1l0.8-0.5l1.8-2.9
	l0.5-0.2l2.2-0.1l1.2-0.6l0.5-0.6l0.3-0.7l0.3-4.5l-0.1-0.7l0.4-3.4l2.5-13l1-1.6l0.7-1.6l1.9-0.7l2.7-0.6l2.1-1.1l2.3-1.7l2.3,0.5
	l4.2,2.3l3.7,0.6l0.7,0.2L195.7,93.7L195.7,93.7z"/>

<path name="La Paz" id="mapa-lapaz" class="st0 dep-mapa" d="M280.5,185.5l1.7,4.7l0.1,3.9L282,198l0.3,1.6l0.4,0.9l0.7,0.1l1.4-0.1l5.5-1.7l0.9-0.1l1.1,0.2
	l1.8,0.7l0.6,0.8l5.7,12.1l0.2,1.4v1.5l-0.3,1.3l-1.7,4.8l-0.3,1.1l-1.1,6.3l-0.1,1.1l0.3,4.1l0.3,1.3l0.3,0.9l1.5,1.7l1.4,1.1
	l2,1.2l1.6,1.5l1.5,1.9l0.6,1.2l0.2,1l-0.1,0.7l-0.3,1.3l-0.5,1.1l-1.4,1.1l-0.7,0.9l-0.2,0.6l-0.1,1.4l1.1,9.6l-0.1,1.3l-0.3,0.6
	l-0.8,0.9l-0.4,0.3l-2.1,1.1l-1.7,0.7l-1,0.6l-0.9,0.7l-0.7,0.9l-0.5,1.2l-0.2,0.7l-0.6,7.1L241.9,254l-16.2-10l0.7-2.2l0.6-1.4
	l1.8-3.2l0.7-0.9l1.1-1.4l0.6-1l-0.2-0.7l-0.7-0.8l-2.3-0.9l-1.3-0.3l-1.5-0.1l-0.7-1l-0.8-3.8l0.5-1.9l0.7-0.4l1.7-1.8l1.2-2.6
	l1.9-5.8l0.5-2.6l0.2-1.6l-0.4-1.2l-1.8-3.1l-0.7-1.9l-0.4-2.1l0.1-1.1l0.3-0.7l0.5-0.3l0.6-0.2l1.4,0.1l3.7,1.2l1.4,0.2l1.2-0.9
	l6.9-8.8l8.3-7.8l10.1,3.7l3.9,2.1l4.3,1.4l1.8-0.2l0.9-0.4l0.4-0.4l0.5-1.1l0.3-0.4l1.2-0.4l2.8-0.4l1.3-0.4L280.5,185.5
	L280.5,185.5z"/>

<path name="Sonsonate" id="mapa-sonsonate" class="st0 dep-mapa" d="M152.4,159l2.6,0.8l0.6,0.3l0.9,0.7l0.6,1.1l0.1,0.7l-0.3,0.9l-0.6,0.9l-1.7,1.5l-1.4,1l-3.4,2
	l-1.2,1.2l-2.7,3.3l-0.9,0.7l-0.9,0.4l-1.6,0.2l-0.6,0.1l-0.9,0.6l-0.4,0.4l-0.5,0.9l-0.5,1.3l-0.7,2.8l-0.4,2.7l0.3,5.2l-0.1,0.8
	l-0.6,1.2l-1.2,1.5l-5,5l-0.9,0.8l-0.6,0.7l-0.6,1.2l-0.4,2l-0.3,2.8l-0.6,0.9l-1,1.2l-5.8,5.1l-1.2,1.9l-3,7l-1.6-0.3l-14.5-4.8
	l-7.7,1.6l-21.7,0.3l-3.5-2.4l-2.3-8.7l-0.9-5.4l-2.8-2.4l-4.7-2.9l-18.5-10.5l-0.5-0.2l0.5-0.9l3.7-5.8l1.7-2.1l1.2-0.9l1.4-0.6
	l1.3-0.2l1.7,0.1l1.2,0.4l1.4,1.1l3,3.4l1.7,1.6l0.4,0.3l1.4,0.3l6.9,0.4l1.9-0.2l1.2-0.4l1.3-5.3l0.4-1.1l2.9-5.3l0.2-0.6l0.1-2.2
	l0.4-1l0.7-1.3l1.7-2.1l0.7-1.1l0.3-0.9l-0.2-1.3l-1.9-6.1l0.1-0.9l0.4-1.3l4.7-7.1l0.1-0.8l-0.7-1.7l-0.4-1.1l-0.4-1.4l-0.5-4.4
	l0.1-1l0.2-1.5l0.5-0.7l0.6-0.4l2.8-0.4l5-1.4l4-1.7l5.3,1.3l2.1-0.1l1.2-0.3l1.4-0.1l1.1,0.6l1.3,0.9l3.7,3.7l0.7,0.9l0.7,1.7
	l1.2,1.5l1.4,1.3l1.1,1.7l0.2,1.2l-0.2,1.3L113,144l-0.9,0.7l-0.7,0.9l-0.1,0.6l0.3,0.5l0.7,0.5l1.4,0.2l1.1,1.1l0.6,0.8l0.6,1.3
	l0.9,0.8l0.7,0.3l1.1,0.2l1.7-0.4l0.8-0.4l0.5-0.6l0.2-0.6V148l0.3-1.3l0.7-1.7l0.6-1l0.8-0.8l0.7-0.1l1.6,0.7l2.2,1.3l4.9,3.6
	l3,2.8l1.4,3.5l0.7,0.9l2.9,1L152.4,159L152.4,159z"/>

<path name="San Salvador" id="mapa-sansalvador" class="st0 dep-mapa" d="M224.5,90.2l-0.1,2.3l-1.1,2.8l-1.1,2.2l-0.3,0.8l0.1,1.1l0.7,3.9l0.2,2.3l-0.2,1.6l-0.3,1.3
	l-0.2,1.4l-0.4,1.2l-0.6,0.9l-1.2,1.1l-0.2,0.3l0.3,2.1l0.4,1.8l2.2,4.5l4.7,7.8l1.4,1.8l0.2,0.6l-0.4,0.9l-0.4,0.4l-0.6,0.4
	l-1.6,0.7l-0.4,0.4l0.7,1.8l6,9.6l2.1,2.4l1.6,1.3l1.4,0.1l1.3,0.4l0.4,0.3l2.9,4.3l0.9,0.9l0.9,0.6l0.6,0.2l0.4,0.7l0.2,1l-0.4,5.1
	l0.4,1.1l3.9,7.6l1.1,1.4l0.4,1.3l0.5,1.2l0.2,7.1l-8.3,7.8l-6.9,8.8l-1.2,0.9l-1.4-0.2l-3.7-1.2l-1.4-0.1l-0.6,0.2l-0.5,0.3
	l-0.3,0.7l-0.1,1.1l0.4,2.1l0.7,1.9l1.8,3.1l0.4,1.2l-0.2,1.6l-0.5,2.6l-1.9,5.8l-1.2,2.6l-1.7,1.8l-0.7,0.4l-0.5,1.9l-1.7-0.7
	l-1.4-0.3l-1.3,0.2l-2.4,0.8l-1.3,0.3l-1.4-0.1l-0.5-0.3l-0.3-0.5l-1.3-2.8l-3.7-5.9l-0.2-0.9l0.1-1.1l0.5-2l1.4-3.7l0.1-0.8
	l-0.4-9.7l0.2-2.2l0.3-1.3l0.8-0.8l0.1-0.6l-0.3-0.6l-1.7-0.8l-0.5-0.6l-0.1-0.7l0.6-1.3l0.7-1.4l0.1-0.8L210,187l-1.6-2.1l-1.4-1.1
	l-3.3-1.8l-0.5-0.4l-0.4-0.7l-0.3-1.1l-0.4-1.8l-0.3-0.8l-0.4-0.6l-0.9-0.7l-0.7-0.9l-0.2-0.6l-0.2-2.2l0.2-2.4l-1.2-1.5l-1.3-0.2
	l-0.4-0.5l-0.1-0.9l1-2.9l1.6-2.9l0.4-1.6l0.3-3.8l0.4-2.2l0.8-1.8l0.4-1.8l0.4-4.2l0.3-1.1l0.4-1.1l0.7-0.9l0.9-0.7l1.2-0.4
	l0.5-0.3l0.2-0.6l0.3-1.3l1.2-13.1l0.2-0.8l0.4-0.4l0.6-0.2l1.7,0.1l0.2-0.2l0.4-1.6l0.6-1.6l-0.1-0.4l-0.3-0.5l-1.2-0.7l-0.8-0.7
	l-0.8-0.4l-1.3-0.4l-1.4-0.1l-2.1,0.2h-0.7l-1.9-0.6l-1.1-0.5l-0.9-0.6l-0.7-0.9l-0.7-1.2l-1.2-2.7l-0.6-1.2l-0.6-0.8l-1.4-1.1
	l-0.2-0.8l0.1-1.3l1.2-5.1l0.3-7.9l1.6,0.2l0.9-0.4l3-2.2l1.7-0.6l4.8,2.1h3.2l1.4-2.9l3.2,2.6l2.6,0.6L224.5,90.2L224.5,90.2z"/>

<path name="La Unión" id="mapa-launion" class="st0 dep-mapa" d="M464.4,300.8l1.2-18.4l0.3-1.8l0.6-2.3l0.4,0.2l1.9,1.4l2,1.2l2.4,0.8l0.7,0.2h0.8l1.1-0.3
	l0.6-0.6l3-9.8l0.2-1.4l-0.4-1.3l-0.1-1l2.9-16.9l-0.1-0.6l-0.4-1.2l-2.2-3.4l-0.5-1.2l-0.7-4.2l-0.1-6l0.2-1.6l0.3-0.9l0.4-0.3
	l1-0.6l1.2-1l0.9-1.1l0.2-0.8v-0.8l-0.9-3.4l-0.1-7.2l0.4-2.9l1.5-2.1l7.1-7.6l1.7-2.6l0.4-4.4l5.3-13.6l1.3-6.3l0.7-5.5l0.1-4.5
	l-0.2-1.4l-0.4-1.1l-0.3-0.6l-1.1-1.3l-0.3-0.5l-0.2-1.4l0.9-14.3l-0.4-6.7l-1-3.9l-0.7-4.6l1.3,0.3l3.4,2.2l1.6,0.4l1.1-0.6
	l2.9-2.3l1.8-0.6l2.3,0.2l4.5,0.9l2.2-0.1l2.2-1.6l1.9-2.4l2.3-1.9l3.4-0.1l2.2,1.7l2.2,6.2l1.9,2.8l1.2,0.7l3.2,1.2l1.4,0.8
	L549,148l4,1.7l-2.1,3.4l-4.6,10.7l-1.2,3.9l1.5,3.9l-1.2,2.6l-2.3,2.2l-2,2.9l-0.8,4.2l0.2,8.8l-0.6,4.3l-5.5,13.3l-1.3,6.5
	l2.4,5.4l2.4,0.9l4.8-1.6l3.3,1.3l1.8,2.1l1.2,2.8l0.4,3.2l-0.5,3l-3.9,4.5l-18,8.3l-1.9-1.1l-1.2-1.9l-1.7-5l-6.4,11.2l-1.7,6.7
	l4.2,2.9l2.7,1.1l7.6,7.3l4.3,2.9l0.3,1.4v2.9l-1.8,5l-4.5,3.6l-17,8.6l-4.6,3.7l-0.8,3.8l5.3,3.7l-8.1,1.9l-31.5-2.2L464.4,300.8
	L464.4,300.8z"/>

<path name="Morazán" id="mapa-morazan" class="st0 dep-mapa" d="M496.1,131.5l0.7,4.6l1,3.9l0.4,6.7l-0.9,14.3l0.2,1.4l0.3,0.5l1.1,1.3l0.3,0.6l0.4,1.1l0.2,1.4
	l-0.1,4.5l-0.7,5.5l-1.3,6.3l-5.3,13.6l-0.4,4.4l-1.7,2.6l-7.1,7.6l-4.9-0.8l-2.4,0.2l-8.9,2.8l-1.7,0.2l-1.1-0.2l-0.3-0.4l-0.6-1.1
	l-0.5-0.6l-0.8-0.7l-3.4-2.1l-0.5-0.3l-0.6-1l-0.6-4.2l-0.4-1.3l-0.8-1.6l-1-1.3l-0.8-0.6l-0.8-0.3l-8.9,0.7l-1.3,0.3l-1.2,0.4
	l-1.8,1.1l-1.3,0.4l-0.4-0.3v-0.4l0.3-0.5l1.3-1.8l0.2-0.6l0.1-0.6l-0.3-0.6l-0.6-0.5l-1.6-1.1l-0.9-0.9l-0.4-1.2l-0.1-0.7l-0.4-0.9
	l-0.8-1.1l-2.2-1.6l-0.8-0.8l-0.4-1.4l-0.8-1.2l-2.9-2.6l-1.2-1.4l-0.7-1.1l-0.4-5.9v-0.6l0.7-0.9l7.5-5.4l1.1-0.6l1.8-0.7l0.9-0.7
	l0.4-0.4l0.2-0.7v-0.9l-0.4-1.4l-0.6-0.9l-0.6-0.6l-8.6-5.9l-1.3-1.2l-0.8-0.9l-0.3-1.2l-0.1-2.3l0.2-1.3l0.3-0.8l0.9-1.3l0.9-0.7
	l0.8-0.9l0.4-1.1l0.2-0.7l-0.1-1.4l-0.7-2l-0.9-1.8l-0.4-1l-0.1-0.8l-0.4-1.9l-2.7-6.4l-1.2-1.7l0.9-1.7l1.5-1.7l2.8-1.2l2,0.3
	l1.4-0.3l1.1-3.2l-0.4-0.7l-2.1-1.9l-0.5-0.8l-0.2-4.7l0.1-0.8l2.3-0.8l3.4,0.4l6,1.3l3.7,0.1l11.9-1.4l6,0.3l2.7,2.2l3.3,8.7l3.3,4
	l4.2,3.9l3.7,4.5l1.9,5.8l10.4-5.2l3.4-0.9L496.1,131.5L496.1,131.5z"/>

<path name="San Miguel" id="mapa-sanmiguel" class="st0 dep-mapa" d="M483.3,211.7l-1.5,2.1l-0.4,2.9l0.1,7.2l0.9,3.4v0.8l-0.2,0.8l-0.9,1.1l-1.2,1l-1,0.6l-0.4,0.3
	l-0.3,0.9l-0.2,1.6l0.1,6l0.7,4.2l0.5,1.2l2.2,3.4l0.4,1.2l0.1,0.6l-2.9,16.9l0.1,1l0.4,1.3l-0.2,1.4l-3,9.8l-0.6,0.6l-1.1,0.3H474
	l-0.7-0.2l-2.4-0.8l-2-1.2l-1.9-1.4l-0.4-0.2l-0.6,2.3l-0.3,1.8l-1.2,18.4l-1.6-0.3h-1.6l-1.7,0.7l-14-16.4l-0.6-0.2l-1.3-0.2
	l-6.2,0.9l-0.6-0.1l-0.4-0.4l-0.1-1.2l0.4-1.6l1.7-3.1l-0.2-0.7l-0.5-0.7l-1.5-0.8l-0.9-0.7l-0.6-0.8l-0.1-3.5l-0.1-0.7l-0.2-0.7
	l-0.4-0.7l-0.7-0.8l-1-0.1l-0.7,0.1l-2.2,1.1l-1.1,0.5l-1.3,0.2l-1.2-0.3l-1.8-1.4l-0.6-0.2h-1.3l-0.7-0.4l-0.9-0.9l-2-2.4l-1.2-1
	l-1.1-0.6l-4.5-0.6l-1.2-0.3l-1.7-0.8l-0.9-0.7l-1.6-2.1l-2.3-3.7l-1.3-2.5l-1.2-4.2l-0.3-1.8l-0.1-1.4l0.1-1.5l-0.2-0.7l-0.3-0.6
	l-0.9-0.3l-1.1,0.4h-0.4l-0.3-0.3l-0.3-0.7l-0.7-4.4l-0.1-1.5l-0.4-3.2l0.1-1.4l0.2-0.6l0.4-0.4h0.7l0.9,0.9l0.4,0.1l0.3-0.4
	l0.2-0.6l0.1-1.4v-1.4l0.3-1.3l0.7-1l1.2-1.1l0.3-0.7l0.1-0.6l-0.1-0.9l-0.9-3.1l-0.2-1.2v-0.9l0.5-1.8V214l-0.3-0.8l-2.8-5.9
	l-0.2-1.3l-0.1-1.4l0.1-0.7l0.4-1.1l0.3-0.4l0.6-0.3l1.2-0.4l0.6-0.3l0.7-0.9l0.2-0.6l0.1-0.6l-0.1-0.9l-0.3-0.9l-0.6-1.7l-0.4-2
	l0.1-1.4l1.1-3v-0.7l-0.8-0.6l-1.4-0.4l-5.6-0.7l-1.8-0.6l-1.9-1.4l-1.6-1.5l-1.9-3l-1.4-1.8l-2.8-0.2l-9.3,1.1l-2.6-4.1l-7-7.1
	l-0.6-5.5l-0.1-0.1l2.1-4.1l2.2-3.3l-0.5-3.3l2.4-1.6l1.6-2.4l0.3-2.8l-1.4-2.9l1.4-1.3l6.1-0.3l4.3-2.6l4.2-1.8l9.2-2.1l2.2,0.1
	l3.6,1.4l1.7,0.2l0.3-0.7V134l0.2-1.4l0.7-0.8l1.5-0.1l1.8,0.3l1.8,0.5l1.4,0.7l1.6-3l2.4-0.9l2.8-0.2l2.5-0.8l1.8-1.8l0.8-1.3
	l1.2,1.7l2.7,6.4l0.4,1.9l0.1,0.8l0.4,1l0.9,1.8l0.7,2l0.1,1.4l-0.2,0.7l-0.4,1.1l-0.8,0.9l-0.9,0.7l-0.9,1.3l-0.3,0.8l-0.2,1.3
	l0.1,2.3l0.3,1.2l0.8,0.9l1.3,1.2l8.6,5.9l0.6,0.6l0.6,0.9l0.4,1.4v0.9l-0.2,0.7l-0.4,0.4l-0.9,0.7l-1.8,0.7l-1.1,0.6l-7.5,5.4
	l-0.7,0.9v0.6l0.4,5.9l0.7,1.1l1.2,1.4l2.9,2.6l0.8,1.2l0.4,1.4l0.8,0.8l2.2,1.6l0.8,1.1l0.4,0.9l0.1,0.7l0.4,1.2l0.9,0.9l1.6,1.1
	l0.6,0.5l0.3,0.6l-0.1,0.6l-0.2,0.6l-1.3,1.8l-0.3,0.5v0.4l0.4,0.3l1.3-0.4l1.8-1.1l1.2-0.4l1.3-0.3l8.9-0.7l0.8,0.3l0.8,0.6l1,1.3
	l0.8,1.6l0.4,1.3l0.6,4.2l0.6,1l0.5,0.3l3.4,2.1l0.8,0.7l0.5,0.6l0.6,1.1l0.3,0.4l1.1,0.2l1.7-0.2l8.9-2.8l2.4-0.2L483.3,211.7
	L483.3,211.7z"/>

<path name="San Vicente" id="mapa-sanvicente" class="st0 dep-mapa" d="M363.6,162.8l0.6,5.5l7,7.1l2.6,4.1L359.5,190l-1.3,4.1l-3.4,4.7l-4.6,2.9l-5-1.2l-6.6,8.2
	l-0.3,1.5l-3.8,0.6l-1.3,1.9l-0.6,7.2l-1.9,6.9l-10.4,19.9l-0.9,2.5l-0.6,3l-0.3,7.3l-0.6,1.6l-4,3.9l-2.1,3.2l-1.4,2.6l-2.2,1.7
	l-4.5,0.7l-2.7,1.1l-1.7,2.3l-0.9,3.3v0.5l-3.3-1.6l0.6-7.1l0.2-0.7l0.5-1.2l0.7-0.9l0.9-0.7l1-0.6l1.7-0.7l2.1-1.1l0.4-0.3l0.8-0.9
	l0.3-0.6l0.1-1.3l-1.1-9.6l0.1-1.4l0.2-0.6l0.7-0.9l1.4-1.1l0.5-1.1l0.3-1.3l0.1-0.7l-0.2-1l-0.6-1.2l-1.5-1.9l-1.6-1.5l-2-1.2
	l-1.4-1.1l-1.5-1.7l-0.3-0.9l-0.3-1.3l-0.3-4.1l0.1-1.1l1.1-6.3l0.3-1.1l1.7-4.8l0.3-1.3v-1.5l-0.2-1.4l-5.7-12.1l-0.6-0.8l-1.8-0.7
	l-1.1-0.2l-0.9,0.1l-5.5,1.7l-1.4,0.1l-0.7-0.1l-0.4-0.9L282,198l0.3-3.9l-0.1-3.9l-1.7-4.7l4.4-4.4l0.5-0.8l0.6-1.1l0.8-3.3
	l4.2-11.2l0.3-6.8l0.4-0.7l0.6-0.8l1.5,0.1l1.3,0.3l2.4,0.8l1.6-0.3l2.2-0.7l7.1-3.2l1.5-0.4l1.7,0.4l1.3,0.1l0.8-0.5l0.8-0.8
	l1.1-1.6l0.8-0.4l0.8-0.1l3.3,2.4l1.1,0.3l1.6,0.2l7.3-0.1l1.5,0.3l3.1,0.2l2.6,0.4l0.5,0.3l4.2,3.1l0.6,0.3l2.4,0.9l1.5,0.9
	l0.6,0.3l1.6,0.4l0.6,0.3l0.3,0.6l0.3,1.3l0.5,1.1l0.4,0.4l0.8,0.3l5.8,0.7l2.2,0.6L363.6,162.8L363.6,162.8z"/>

<path name="Usulután" id="mapa-usulutan" class="st0 dep-mapa" d="M459.6,301.2l-2.2,0.8l-19.7,1.7l-21.1-3.2l-5.5,1.8l-2.9-1l-3.3-0.7v-1.5l5.2-0.3l0.3-3.6
	l-2.7-4.5l-4.2-2.9l0.9,1.8l2.7,3.8l1.1,2.4l-8.3-0.3l-4,0.4l-3.4,1.5l2.2,0.9l1.8-0.3l2.2-0.6l3.2-0.1v1.7l-5.3,2.2l-5.9-0.2
	l-4.6-2.8l-1.4-5.8l2.3,1l0.8,0.6l3.2-3.2v-1.4l-3.9-1.8l-4.3-6.1l-2.9-1.8l0.8,3.4l1.3,2.8l0.7,2.5l-1,2.4l-3.3-1.9l-9.6-2.4
	l-4.2-2.3l-3.8-6.8l-1.8-1.1l-2.7-0.2l-7.5-1.5h-3.3l-9.3,1.7l-12.9,0.4l-2.8,1.2l1.6,1.3l1.7,0.9l1.7,0.3l1.5-0.7l6.4,1.5l18.4-2
	l2.1,0.3l2.9,1.6l1.6,1.5l2.8,3.5l1.9,1.4v1.8l-4.3-0.7l-3.1-0.6l-6.8-2.1v1.6l18.7,3.9l9.8,3.2l4.4,4.3l-1.6,2.8l-4.1-0.7l-4.5-2.4
	l-3-2.3l-3.4-1.7l-59-11l-7.2-3.4v-0.5l0.9-3.3l1.7-2.3l2.7-1.1l4.5-0.7l2.2-1.7l1.4-2.6l2.1-3.2l4-3.9l0.6-1.6l0.3-7.3l0.6-3
	l0.9-2.5l10.4-19.9l1.9-6.9l0.6-7.2l1.3-1.9l3.8-0.6l0.3-1.5l6.6-8.2l5,1.2l4.6-2.9l3.4-4.7l1.3-4.1l14.4-10.5l9.3-1.1l2.8,0.2
	l1.4,1.8l1.9,3l1.6,1.5l1.9,1.4l1.8,0.6l5.6,0.7l1.4,0.4l0.8,0.6v0.7l-1.1,3l-0.1,1.4l0.4,2l0.6,1.7l0.3,0.9l0.1,0.9l-0.1,0.6
	l-0.2,0.6l-0.7,0.9l-0.6,0.3l-1.2,0.4l-0.6,0.3l-0.3,0.4l-0.4,1.1l-0.1,0.7l0.1,1.4l0.2,1.3l2.8,5.9l0.3,0.8v0.6l-0.5,1.8v0.9
	l0.2,1.2l0.9,3.1l0.1,0.9l-0.1,0.6l-0.3,0.7l-1.2,1.1l-0.7,1l-0.3,1.3v1.4l-0.1,1.4l-0.2,0.6l-0.3,0.4l-0.4-0.1l-0.9-0.9h-0.7
	l-0.4,0.4l-0.2,0.6l-0.1,1.4l0.4,3.2l0.1,1.5l0.7,4.4l0.3,0.7l0.3,0.3h0.4l1.1-0.4l0.9,0.3l0.3,0.6l0.2,0.7l-0.1,1.5l0.1,1.4
	l0.3,1.8l1.2,4.2l1.3,2.5l2.3,3.7l1.6,2.1l0.9,0.7l1.7,0.8l1.2,0.3l4.5,0.6l1.1,0.6l1.2,1l2,2.4l0.9,0.9l0.7,0.4h1.3l0.6,0.2
	l1.8,1.4l1.2,0.3l1.3-0.2l1.1-0.5l2.2-1.1l0.7-0.1l1,0.1l0.7,0.8l0.4,0.7l0.2,0.7l0.1,0.7l0.1,3.5l0.6,0.8l0.9,0.7l1.5,0.8l0.5,0.7
	l0.2,0.7l-1.7,3.1l-0.4,1.6l0.1,1.2l0.4,0.4l0.6,0.1l6.2-0.9l1.3,0.2l0.6,0.2L459.6,301.2L459.6,301.2z"/>

<path name="Chalatenango" id="mapa-chalatenango" class="st0 dep-mapa" d="M327.4,103.3l-10.5,1.6l-4.8,2.3l-1.7,2.3l-1.6,1.2l-2.7,1.2l-14,4.7l-3.4,1.3l-3.2,0.8l-6-0.6
	l-6.7,0.2l-3.8-0.4l-3.5-1.4l-4.1,0.3l-4.9-2.3l-0.8-0.6l-1.1-0.9l-1.2-1.8l-0.6-1.3l-0.4-1.1l-0.2-1.2V107l0.2-1l-0.1-0.4l-0.4-0.7
	l-5-6l-1.1-1.8l-0.3-0.4l-3.9-2.8l-1.7-1.5l-1.2-0.6l-5.9-2.1l-2.8-1.5l-1.5-0.1l-4,2.1l-6.3,2.9l-2.6-0.6l-3.2-2.6l-1.4,2.9h-3.2
	l-4.8-2.1l-1.7,0.6l-3,2.2l-0.9,0.4l-1.6-0.2l-2.2-1l-0.7-0.2l-3.7-0.6l-4.2-2.3l-2.3-0.5l-2.3,1.7l-2.1,1.1l-2.7,0.6l-1.9,0.7
	l-0.7,1.6l-1,1.6l-2.7,0.7h-3.4l-3.4-0.6l-2.6-2.4l-0.7-5l4.4-15.1l4.3,0.3l1.1-0.5l0.4-0.4l0.6-0.8l2.7-4.9l0.9-0.7l0.6-0.2
	l1.2-0.3l2.4-0.2l0.7-0.1l1.2-0.4l1-0.7l0.8-0.8l4.4-6.2l0.4-1.1l0.1-0.9l-0.2-2.6v-4.8l8.5-3.4l2-2.3l0.9-4.8l2.9-8.5l-4.2-2.7
	l-1.1-1.4l-0.5-0.4l-3.4-1.8l-0.8-0.7l-0.5-0.5l-1-1.7l-0.8-1.8l-0.3-0.4l-1.5-1.7l-8.8-8.2l8.9,1.4l7.1,3.4l11.6,2.6l5.8,4.1
	l10.6,3.2l2.2-2l3.3-6.4l1.8-1.9l2-0.6l1.3,0.3l1.2,1.1l1.3,1.8l1.2,2.2l0.5,2.3l-0.2,2.4l-0.9,2.3l2.6,2.3l7.8,0.9l3.7,1.8l1.5,2.9
	l0.9,7.3l1.1,2.1l5.8,4.4l2.1,2.6l2.1,3.5l0.9,2.9l0.3,3l0.7,2.5l2.1,1.5l2.2-0.5l2.7-1.6l3.2-1.4l3.6,0.1l5.7,3.7l4.8,6l3.4,7
	l1.5,6.7l4-0.6l10,0.7l2.7-1.1l2.4-1.4l2-0.2l1.6,2.7l-0.2,4l-1.4,3.9l-0.2,3.3l3.6,2.4l4.9,0.7l1.1,0.4l1.6,1.4l1.2,1.6l0.5,2
	L327.4,103.3L327.4,103.3z"/>

<path name="Santa Ana" id="mapa-santana" class="st0 dep-mapa" d="M177.6,8.5l8.8,8.2l1.5,1.7l0.3,0.4l0.8,1.8l1,1.7l0.5,0.5l0.8,0.7l3.4,1.8l0.5,0.4l1.1,1.4
	l4.2,2.7l-2.9,8.5l-0.9,4.8l-2,2.3l-8.5,3.4v4.8l0.2,2.6l-0.1,0.9l-0.4,1.1l-4.4,6.2l-0.8,0.8l-1,0.7l-1.2,0.4l-0.7,0.1l-2.4,0.2
	l-1.2,0.3l-0.6,0.2l-0.9,0.7l-2.7,4.9l-0.6,0.8l-0.4,0.4l-1.1,0.5l-4.3-0.3l-4.4,15.1l0.7,5l2.6,2.4l3.4,0.6h3.4l2.7-0.7l-2.5,13
	l-0.4,3.4l0.1,0.7l-0.3,4.5l-0.3,0.7l-0.5,0.6l-1.2,0.6l-2.2,0.1l-0.5,0.2l-1.8,2.9l-0.8,0.5l-0.6,0.1l-1.2-0.2l-0.6,0.1l-0.5,0.3
	l-0.4,0.4l-0.3,1.3l-0.3,6.3l0.2,4.2l-0.4,5l-4,11l-1.1,6.5l-10.9-2.1l-2.9-1l-0.7-0.9l-1.4-3.5l-3-2.8l-4.9-3.6l-2.2-1.3l-1.6-0.7
	l-0.7,0.1l-0.8,0.8l-0.6,1l-0.7,1.7l-0.3,1.3v2.1l-0.2,0.6l-0.5,0.6l-0.8,0.4l-1.7,0.4l-1.1-0.2l-0.7-0.3l-0.9-0.8l-0.6-1.3
	l-0.6-0.8l-1.1-1.1l-1.4-0.2l-0.7-0.5l-0.3-0.5l0.1-0.6l0.7-0.9l0.9-0.7l0.7-0.9l0.2-1.3l-0.2-1.2l-1.1-1.7l-1.4-1.3l-1.2-1.5
	l-0.7-1.7l-0.7-0.9l-3.7-3.7l-1.3-0.9l-1.1-0.6l-1.4,0.1l-1.2,0.3l-2.1,0.1l-5.3-1.3l4.5-15.7l0.7-4.3L97,106l-0.8-0.9l-0.9-0.7
	l-0.8-0.8l-0.6-1.1l-0.5-1.9l-0.7-1l-0.8-0.7l-4.2-2.7l-1.9-0.8L84.3,92l-0.2-1.8l0.7-1.9l9.8-17.4l4.5-5l5.8-4.4l6-2.8l24.5-5.9
	l1.5-1.5l-0.1-3.7l-0.7-1l-2.9-1.4l-1-1l-0.4-1.6l-0.4-3.6l-0.3-1.1l-1.3-2.5l-0.7-0.9l-1.3-1.3l-1.6-0.7l-4.8-0.6l-1.4-3.4l1.4-1.9
	l2.3-1.7l1.4-2.3l-0.7-2.7l-1.7-2.4l-1-2.7l1.5-3.7l3.3-2.4l3.3,0.3l2.5,2.6l0.7,4.4l3.1-2.2l5.7-6.9l4-1.7l3.7,0.4l2.6,1.4l2.6,0.9
	l3.6-0.7l5.2-5.4l2.3-0.9l0.3,4.5l1.2-1.8l0.2-0.6l6.7,4.8L177.6,8.5L177.6,8.5z"/>
</svg>
